<svg data-name="Layer 1" xmlns="http://www.w3.org/2000/svg" viewBox="0 0 24 24"><path d="M17.994 2.286A9 9 0 003.075 7.822a8.938 8.938 0 002.793 7.761A6.263 6.263 0 018 20.149v.161A3.694 3.694 0 0011.69 24h.62A3.694 3.694 0 0016 20.31v-.549a5.323 5.323 0 011.932-4 8.994 8.994 0 00.062-13.477zM12.31 22h-.62A1.692 1.692 0 0110 20.31L9.992 20H14v.31A1.692 1.692 0 0112.31 22zm4.3-7.741A7.667 7.667 0 0014.246 18H13v-7.184A3 3 0 0015 8a1 1 0 00-2 0 1 1 0 01-2 0 1 1 0 00-2 0 3 3 0 002 2.816V18H9.678a8.634 8.634 0 00-2.448-3.881 7 7 0 013.951-12.073A7.452 7.452 0 0112.009 2a6.921 6.921 0 014.652 1.778 6.993 6.993 0 01-.048 10.481z"/></svg>