<svg xmlns="http://www.w3.org/2000/svg" viewBox="0 0 24 24"><path d="M23.437 10.487L14.939 1.3a4 4 0 00-5.875 0L.581 10.484A2 2 0 000 11.894V21a3 3 0 003 3h4v-6a4.985 4.985 0 012.628-4.374c.05-.028.1-.056.152-.083a4.969 4.969 0 01.576-.243c.135-.049.272-.091.413-.128s.311-.07.471-.1c.088-.014.17-.044.26-.053.154-.015.3-.018.455-.019.016 0 .03-.005.045-.005h.018a5 5 0 01.922.093c.034.007.068.01.1.017a5.015 5.015 0 01.834.26c.038.015.076.029.114.046a4.964 4.964 0 01.742.4l.111.074a5.038 5.038 0 01.643.531l.093.094a5.16 5.16 0 01.534.646l.068.1a5.062 5.062 0 01.409.753c.013.032.024.064.037.1a4.961 4.961 0 01.266.855c0 .022.007.045.011.067A4.974 4.974 0 0117 18v6h4a3 3 0 003-3v-9.121a2 2 0 00-.563-1.392z"/><path d="M12 15a3 3 0 00-3 3v6h6v-6a3 3 0 00-3-3z"/></svg>