<svg width="176" height="127" viewBox="0 0 176 127" fill="none" xmlns="http://www.w3.org/2000/svg">
<path d="M99.8905 86.4196C99.8905 88.358 98.3192 89.9294 96.3807 89.9294C94.4422 89.9294 92.8708 88.358 92.8708 86.4196C92.8708 84.4811 94.4422 82.9097 96.3807 82.9097C98.3192 82.9097 99.8905 84.4811 99.8905 86.4196V86.4196ZM49.3487 82.916C47.4134 82.916 45.8389 81.3415 45.8389 79.4062V36.1493L74.9706 9.57289L104.102 36.1493V48.8105C106.512 49.3373 108.862 50.1125 111.122 51.1253V42.5532L115.21 46.2827L119.941 41.0969L74.9706 0.0710297L30 41.0969L34.7309 46.2827L38.8192 42.5532V79.4062C38.8192 85.2122 43.5427 89.9294 49.3487 89.9294H85.9817L78.9695 82.916H49.3487ZM96.3807 68.3439C92.1459 68.3439 87.5627 70.3036 84.4049 73.4582L81.9217 75.9388L86.8827 80.9051L89.3659 78.4247C91.2273 76.565 94.15 75.3637 96.5562 75.3637C98.9341 75.3637 101.675 76.5653 103.536 78.4247L106.02 80.9051L110.981 75.9388L108.497 73.4582C105.339 70.3034 100.587 68.3439 96.3807 68.3439V68.3439ZM117.525 63.9873C111.765 58.1957 104.297 55.0061 96.4953 55.0063C88.6923 55.0064 81.2237 58.196 75.4653 63.9876L72.9903 66.4766L77.9682 71.426L80.443 68.937C84.8742 64.4806 90.5749 62.0261 96.4953 62.026C102.414 62.0258 108.115 64.4802 112.548 68.9374L115.023 71.426L120 66.4759L117.525 63.9873Z" fill="url(#paint0_linear)"/>
<path d="M16.375 113.855H4.05078V123.934H18.3672V127H0.300781V98.5625H18.1719V101.648H4.05078V110.789H16.375V113.855Z" fill="#7A7A7A"/>
<path d="M28.9336 122.098L34.168 105.867H37.8594L30.2812 127H27.5273L19.8711 105.867H23.5625L28.9336 122.098Z" fill="#7A7A7A"/>
<path d="M45.2617 127H41.6484V105.867H45.2617V127ZM41.3555 100.262C41.3555 99.6758 41.5312 99.181 41.8828 98.7773C42.2474 98.3737 42.7812 98.1719 43.4844 98.1719C44.1875 98.1719 44.7214 98.3737 45.0859 98.7773C45.4505 99.181 45.6328 99.6758 45.6328 100.262C45.6328 100.848 45.4505 101.336 45.0859 101.727C44.7214 102.117 44.1875 102.312 43.4844 102.312C42.7812 102.312 42.2474 102.117 41.8828 101.727C41.5312 101.336 41.3555 100.848 41.3555 100.262Z" fill="#7A7A7A"/>
<path d="M54.4609 105.867L54.5586 108.211C56.1081 106.388 58.1979 105.477 60.8281 105.477C63.7839 105.477 65.7956 106.609 66.8633 108.875C67.5664 107.859 68.4779 107.039 69.5977 106.414C70.7305 105.789 72.0651 105.477 73.6016 105.477C78.237 105.477 80.5938 107.931 80.6719 112.84V127H77.0586V113.055C77.0586 111.544 76.7135 110.418 76.0234 109.676C75.3333 108.921 74.1745 108.543 72.5469 108.543C71.2057 108.543 70.0924 108.947 69.207 109.754C68.3216 110.548 67.8073 111.622 67.6641 112.977V127H64.0312V113.152C64.0312 110.079 62.5273 108.543 59.5195 108.543C57.1497 108.543 55.5286 109.552 54.6562 111.57V127H51.043V105.867H54.4609Z" fill="#7A7A7A"/>
<path d="M101.707 121.688H92.3125L90.6719 127H83.3477L93.7773 98.5625H100.223L110.73 127H103.367L101.707 121.688ZM93.9531 116.395H100.066L97 106.531L93.9531 116.395Z" fill="#7A7A7A"/>
<path d="M121.004 119.129L119.148 120.984V127H112.566V96.9805H119.148V112.918L119.812 112.039L124.773 105.867H132.664L125.262 114.559L133.152 127H125.613L121.004 119.129Z" fill="#7A7A7A"/>
<path d="M141.57 127H134.949V105.867H141.57V127Z" fill="#7A7A7A"/>
<path d="M152.742 127H146.141V97H152.742V127Z" fill="#7A7A7A"/>
<path d="M163.758 127H157.156V97H163.758V127Z" fill="#7A7A7A"/>
<path d="M175.008 127H168.387V105.867H175.008V127Z" fill="#7A7A7A"/>
<defs>
<linearGradient id="paint0_linear" x1="75.0001" y1="0.0710297" x2="75.0001" y2="89.9294" gradientUnits="userSpaceOnUse">
<stop stop-color="#2AF598"/>
<stop offset="1" stop-color="#009EFD"/>
</linearGradient>
</defs>
</svg>
