<svg width="130" height="35" viewBox="0 0 130 35" fill="none" xmlns="http://www.w3.org/2000/svg">
<path opacity="0.95" d="M4.9082 3.5332V10.8633C5.81055 9.92578 6.73047 9.21094 7.66797 8.71875C8.60547 8.21484 9.76562 7.96289 11.1484 7.96289C12.7422 7.96289 14.1367 8.34375 15.332 9.10547C16.5391 9.85547 17.4707 10.9512 18.127 12.3926C18.7949 13.8223 19.1289 15.5215 19.1289 17.4902C19.1289 18.9434 18.9414 20.2793 18.5664 21.498C18.2031 22.7051 17.6699 23.7539 16.9668 24.6445C16.2637 25.5352 15.4082 26.2266 14.4004 26.7188C13.4043 27.1992 12.3027 27.4395 11.0957 27.4395C10.3574 27.4395 9.66016 27.3516 9.00391 27.1758C8.35938 27 7.80859 26.7715 7.35156 26.4902C6.89453 26.1973 6.50195 25.8984 6.17383 25.5938C5.85742 25.2891 5.43555 24.832 4.9082 24.2227V24.6973C4.9082 25.5996 4.69141 26.2852 4.25781 26.7539C3.82422 27.2109 3.27344 27.4395 2.60547 27.4395C1.92578 27.4395 1.38086 27.2109 0.970703 26.7539C0.572266 26.2852 0.373047 25.5996 0.373047 24.6973V3.74414C0.373047 2.77148 0.566406 2.03906 0.953125 1.54688C1.35156 1.04297 1.90234 0.791016 2.60547 0.791016C3.34375 0.791016 3.91211 1.03125 4.31055 1.51172C4.70898 1.98047 4.9082 2.6543 4.9082 3.5332ZM5.13672 17.7891C5.13672 19.6992 5.57031 21.1699 6.4375 22.2012C7.31641 23.2207 8.46484 23.7305 9.88281 23.7305C11.0898 23.7305 12.127 23.209 12.9941 22.166C13.873 21.1113 14.3125 19.6055 14.3125 17.6484C14.3125 16.3828 14.1309 15.293 13.7676 14.3789C13.4043 13.4648 12.8887 12.7617 12.2207 12.2695C11.5527 11.7656 10.7734 11.5137 9.88281 11.5137C8.96875 11.5137 8.1543 11.7656 7.43945 12.2695C6.72461 12.7617 6.16211 13.4824 5.75195 14.4316C5.3418 15.3691 5.13672 16.4883 5.13672 17.7891ZM35.1074 24.7324C33.9473 25.6348 32.8223 26.3145 31.7324 26.7715C30.6543 27.2168 29.4414 27.4395 28.0938 27.4395C26.8633 27.4395 25.7793 27.1992 24.8418 26.7188C23.916 26.2266 23.2012 25.5645 22.6973 24.7324C22.1934 23.9004 21.9414 22.998 21.9414 22.0254C21.9414 20.7129 22.3574 19.5938 23.1895 18.668C24.0215 17.7422 25.1641 17.1211 26.6172 16.8047C26.9219 16.7344 27.6777 16.5762 28.8848 16.3301C30.0918 16.084 31.123 15.8613 31.9785 15.6621C32.8457 15.4512 33.7832 15.1992 34.791 14.9062C34.7324 13.6406 34.4746 12.7148 34.0176 12.1289C33.5723 11.5312 32.6406 11.2324 31.2227 11.2324C30.0039 11.2324 29.084 11.4023 28.4629 11.7422C27.8535 12.082 27.3262 12.5918 26.8809 13.2715C26.4473 13.9512 26.1367 14.4023 25.9492 14.625C25.7734 14.8359 25.3867 14.9414 24.7891 14.9414C24.25 14.9414 23.7812 14.7715 23.3828 14.4316C22.9961 14.0801 22.8027 13.6348 22.8027 13.0957C22.8027 12.252 23.1016 11.4316 23.6992 10.6348C24.2969 9.83789 25.2285 9.18164 26.4941 8.66602C27.7598 8.15039 29.3359 7.89258 31.2227 7.89258C33.332 7.89258 34.9902 8.14453 36.1973 8.64844C37.4043 9.14062 38.2539 9.92578 38.7461 11.0039C39.25 12.082 39.502 13.5117 39.502 15.293C39.502 16.418 39.4961 17.373 39.4844 18.1582C39.4844 18.9434 39.4785 19.8164 39.4668 20.7773C39.4668 21.6797 39.6133 22.623 39.9062 23.6074C40.2109 24.5801 40.3633 25.207 40.3633 25.4883C40.3633 25.9805 40.1289 26.4316 39.6602 26.8418C39.2031 27.2402 38.6816 27.4395 38.0957 27.4395C37.6035 27.4395 37.1172 27.2109 36.6367 26.7539C36.1562 26.2852 35.6465 25.6113 35.1074 24.7324ZM34.791 17.7891C34.0879 18.0469 33.0625 18.3223 31.7148 18.6152C30.3789 18.8965 29.4531 19.1074 28.9375 19.248C28.4219 19.377 27.9297 19.6406 27.4609 20.0391C26.9922 20.4258 26.7578 20.9707 26.7578 21.6738C26.7578 22.4004 27.0332 23.0215 27.584 23.5371C28.1348 24.041 28.8555 24.293 29.7461 24.293C30.6953 24.293 31.5684 24.0879 32.3652 23.6777C33.1738 23.2559 33.7656 22.7168 34.1406 22.0605C34.5742 21.334 34.791 20.1387 34.791 18.4746V17.7891ZM59.8398 21.1641C59.8398 22.4883 59.5176 23.625 58.873 24.5742C58.2285 25.5117 57.2734 26.2266 56.0078 26.7188C54.7539 27.1992 53.2246 27.4395 51.4199 27.4395C49.6973 27.4395 48.2207 27.1758 46.9902 26.6484C45.7598 26.1211 44.8516 25.4648 44.2656 24.6797C43.6797 23.8828 43.3867 23.0859 43.3867 22.2891C43.3867 21.7617 43.5742 21.3105 43.9492 20.9355C44.3242 20.5605 44.7988 20.373 45.373 20.373C45.877 20.373 46.2637 20.4961 46.5332 20.7422C46.8027 20.9883 47.0605 21.334 47.3066 21.7793C47.7988 22.6348 48.3848 23.2734 49.0645 23.6953C49.7559 24.1172 50.6934 24.3281 51.877 24.3281C52.8379 24.3281 53.623 24.1172 54.2324 23.6953C54.8535 23.2617 55.1641 22.7695 55.1641 22.2188C55.1641 21.375 54.8418 20.7598 54.1973 20.373C53.5645 19.9863 52.5156 19.6172 51.0508 19.2656C49.3984 18.8555 48.0508 18.4277 47.0078 17.9824C45.9766 17.5254 45.1504 16.9277 44.5293 16.1895C43.9082 15.4512 43.5977 14.543 43.5977 13.4648C43.5977 12.5039 43.8848 11.5957 44.459 10.7402C45.0332 9.88477 45.877 9.20508 46.9902 8.70117C48.1152 8.18555 49.4688 7.92773 51.0508 7.92773C52.293 7.92773 53.4062 8.05664 54.3906 8.31445C55.3867 8.57227 56.2129 8.91797 56.8691 9.35156C57.5371 9.78516 58.041 10.2656 58.3809 10.793C58.7324 11.3203 58.9082 11.8359 58.9082 12.3398C58.9082 12.8906 58.7207 13.3418 58.3457 13.6934C57.9824 14.0449 57.4609 14.2207 56.7812 14.2207C56.2891 14.2207 55.8672 14.0801 55.5156 13.7988C55.1758 13.5176 54.7832 13.0957 54.3379 12.5332C53.9746 12.0645 53.5469 11.6895 53.0547 11.4082C52.5625 11.127 51.8945 10.9863 51.0508 10.9863C50.1836 10.9863 49.4629 11.1738 48.8887 11.5488C48.3145 11.9121 48.0273 12.3691 48.0273 12.9199C48.0273 13.4238 48.2383 13.8398 48.6602 14.168C49.082 14.4844 49.6504 14.748 50.3652 14.959C51.0801 15.1699 52.0645 15.4277 53.3184 15.7324C54.8066 16.0957 56.0195 16.5293 56.957 17.0332C57.9062 17.5371 58.6211 18.1348 59.1016 18.8262C59.5938 19.5059 59.8398 20.2852 59.8398 21.1641ZM68.6992 10.6523V24.5215C68.6992 25.4824 68.4707 26.209 68.0137 26.7012C67.5566 27.1934 66.9766 27.4395 66.2734 27.4395C65.5703 27.4395 64.9961 27.1875 64.5508 26.6836C64.1172 26.1797 63.9004 25.459 63.9004 24.5215V10.793C63.9004 9.84375 64.1172 9.12891 64.5508 8.64844C64.9961 8.16797 65.5703 7.92773 66.2734 7.92773C66.9766 7.92773 67.5566 8.16797 68.0137 8.64844C68.4707 9.12891 68.6992 9.79688 68.6992 10.6523ZM66.3262 5.69531C65.6582 5.69531 65.084 5.49023 64.6035 5.08008C64.1348 4.66992 63.9004 4.08984 63.9004 3.33984C63.9004 2.66016 64.1406 2.10352 64.6211 1.66992C65.1133 1.22461 65.6816 1.00195 66.3262 1.00195C66.9473 1.00195 67.498 1.20117 67.9785 1.59961C68.459 1.99805 68.6992 2.57813 68.6992 3.33984C68.6992 4.07812 68.4648 4.6582 67.9961 5.08008C67.5273 5.49023 66.9707 5.69531 66.3262 5.69531ZM90.8828 21.498C90.8828 22.0957 90.7012 22.7344 90.3379 23.4141C89.9863 24.0938 89.4414 24.7441 88.7031 25.3652C87.9766 25.9746 87.0566 26.4668 85.9434 26.8418C84.8301 27.2168 83.5762 27.4043 82.1816 27.4043C79.2168 27.4043 76.9023 26.543 75.2383 24.8203C73.5742 23.0859 72.7422 20.7656 72.7422 17.8594C72.7422 15.8906 73.123 14.1504 73.8848 12.6387C74.6465 11.127 75.748 9.96094 77.1895 9.14062C78.6309 8.30859 80.3535 7.89258 82.3574 7.89258C83.5996 7.89258 84.7363 8.07422 85.7676 8.4375C86.8105 8.80078 87.6895 9.26953 88.4043 9.84375C89.1309 10.418 89.6816 11.0332 90.0566 11.6895C90.4434 12.334 90.6367 12.9375 90.6367 13.5C90.6367 14.0742 90.4199 14.5605 89.9863 14.959C89.5645 15.3574 89.0488 15.5566 88.4395 15.5566C88.041 15.5566 87.707 15.457 87.4375 15.2578C87.1797 15.0469 86.8867 14.7129 86.5586 14.2559C85.9727 13.3652 85.3574 12.6973 84.7129 12.252C84.0801 11.8066 83.2715 11.584 82.2871 11.584C80.8691 11.584 79.7266 12.1406 78.8594 13.2539C77.9922 14.3555 77.5586 15.8672 77.5586 17.7891C77.5586 18.6914 77.6699 19.5234 77.8926 20.2852C78.1152 21.0352 78.4375 21.6797 78.8594 22.2188C79.2812 22.7461 79.791 23.1504 80.3887 23.4316C80.9863 23.7012 81.6426 23.8359 82.3574 23.8359C83.3184 23.8359 84.1387 23.6133 84.8184 23.168C85.5098 22.7227 86.1191 22.043 86.6465 21.1289C86.9395 20.5898 87.2559 20.168 87.5957 19.8633C87.9355 19.5586 88.3516 19.4062 88.8438 19.4062C89.4297 19.4062 89.916 19.6289 90.3027 20.0742C90.6895 20.5195 90.8828 20.9941 90.8828 21.498ZM96.4727 27.4395C95.7461 27.4395 95.1191 27.2051 94.5918 26.7363C94.0645 26.2676 93.8008 25.6113 93.8008 24.7676C93.8008 24.0527 94.0527 23.4375 94.5566 22.9219C95.0605 22.4062 95.6816 22.1484 96.4199 22.1484C97.1582 22.1484 97.7852 22.4062 98.3008 22.9219C98.8281 23.4258 99.0918 24.041 99.0918 24.7676C99.0918 25.5996 98.8281 26.2559 98.3008 26.7363C97.7852 27.2051 97.1758 27.4395 96.4727 27.4395ZM109.41 10.793V27.0703C109.41 28.2305 109.369 29.1738 109.287 29.9004C109.217 30.6387 109.111 31.1719 108.971 31.5C108.174 33.5391 106.48 34.5586 103.891 34.5586C102.438 34.5586 101.336 34.3594 100.586 33.9609C99.8359 33.5625 99.4609 32.9824 99.4609 32.2207C99.4609 31.6582 99.6309 31.1953 99.9707 30.832C100.311 30.4805 100.756 30.3047 101.307 30.3047C101.377 30.3047 101.494 30.3105 101.658 30.3223C101.811 30.3457 102.039 30.3691 102.344 30.3926C102.66 30.416 102.877 30.4277 102.994 30.4277C103.639 30.4277 104.066 30.1758 104.277 29.6719C104.5 29.168 104.611 28.2656 104.611 26.9648V10.793C104.611 9.84375 104.834 9.12891 105.279 8.64844C105.725 8.16797 106.311 7.92773 107.037 7.92773C107.74 7.92773 108.309 8.16797 108.742 8.64844C109.188 9.11719 109.41 9.83203 109.41 10.793ZM107.037 5.69531C106.369 5.69531 105.795 5.49023 105.314 5.08008C104.846 4.66992 104.611 4.08984 104.611 3.33984C104.611 2.66016 104.852 2.10352 105.332 1.66992C105.824 1.22461 106.393 1.00195 107.037 1.00195C107.658 1.00195 108.209 1.20117 108.689 1.59961C109.17 1.99805 109.41 2.57813 109.41 3.33984C109.41 4.07812 109.176 4.6582 108.707 5.08008C108.238 5.49023 107.682 5.69531 107.037 5.69531ZM129.801 21.1641C129.801 22.4883 129.479 23.625 128.834 24.5742C128.189 25.5117 127.234 26.2266 125.969 26.7188C124.715 27.1992 123.186 27.4395 121.381 27.4395C119.658 27.4395 118.182 27.1758 116.951 26.6484C115.721 26.1211 114.812 25.4648 114.227 24.6797C113.641 23.8828 113.348 23.0859 113.348 22.2891C113.348 21.7617 113.535 21.3105 113.91 20.9355C114.285 20.5605 114.76 20.373 115.334 20.373C115.838 20.373 116.225 20.4961 116.494 20.7422C116.764 20.9883 117.021 21.334 117.268 21.7793C117.76 22.6348 118.346 23.2734 119.025 23.6953C119.717 24.1172 120.654 24.3281 121.838 24.3281C122.799 24.3281 123.584 24.1172 124.193 23.6953C124.814 23.2617 125.125 22.7695 125.125 22.2188C125.125 21.375 124.803 20.7598 124.158 20.373C123.525 19.9863 122.477 19.6172 121.012 19.2656C119.359 18.8555 118.012 18.4277 116.969 17.9824C115.938 17.5254 115.111 16.9277 114.49 16.1895C113.869 15.4512 113.559 14.543 113.559 13.4648C113.559 12.5039 113.846 11.5957 114.42 10.7402C114.994 9.88477 115.838 9.20508 116.951 8.70117C118.076 8.18555 119.43 7.92773 121.012 7.92773C122.254 7.92773 123.367 8.05664 124.352 8.31445C125.348 8.57227 126.174 8.91797 126.83 9.35156C127.498 9.78516 128.002 10.2656 128.342 10.793C128.693 11.3203 128.869 11.8359 128.869 12.3398C128.869 12.8906 128.682 13.3418 128.307 13.6934C127.943 14.0449 127.422 14.2207 126.742 14.2207C126.25 14.2207 125.828 14.0801 125.477 13.7988C125.137 13.5176 124.744 13.0957 124.299 12.5332C123.936 12.0645 123.508 11.6895 123.016 11.4082C122.523 11.127 121.855 10.9863 121.012 10.9863C120.145 10.9863 119.424 11.1738 118.85 11.5488C118.275 11.9121 117.988 12.3691 117.988 12.9199C117.988 13.4238 118.199 13.8398 118.621 14.168C119.043 14.4844 119.611 14.748 120.326 14.959C121.041 15.1699 122.025 15.4277 123.279 15.7324C124.768 16.0957 125.98 16.5293 126.918 17.0332C127.867 17.5371 128.582 18.1348 129.062 18.8262C129.555 19.5059 129.801 20.2852 129.801 21.1641Z" fill="#33A5D3"/>
</svg>
